<?xml version="1.0" standalone="no"?>
<!DOCTYPE svg PUBLIC "-//W3C//DTD SVG 20010904//EN"
 "http://www.w3.org/TR/2001/REC-SVG-20010904/DTD/svg10.dtd">
<svg version="1.0" xmlns="http://www.w3.org/2000/svg"
 width="111.000000pt" height="111.000000pt" viewBox="0 0 111.000000 111.000000"
 preserveAspectRatio="xMidYMid meet">
<metadata>
Created by potrace 1.11, written by Peter Selinger 2001-2013
</metadata>
<g transform="translate(0.000000,111.000000) scale(0.100000,-0.100000)"
fill="#000000" stroke="none">
<path d="M0 990 c0 -5 3 -10 8 -11 42 -4 67 -10 76 -19 7 -7 12 -101 14 -279
3 -245 1 -269 -15 -289 -11 -13 -32 -23 -50 -24 -18 -1 -33 -7 -33 -13 0 -15
283 -14 289 0 2 6 -13 13 -34 16 -46 8 -54 20 -56 89 -1 30 -2 84 -3 120 -1
36 1 72 5 80 6 12 34 15 171 14 l163 -1 0 -136 c0 -152 -7 -171 -64 -169 -19
0 -31 -4 -31 -12 0 -17 287 -18 293 -1 3 6 -5 12 -17 13 -48 3 -66 13 -73 40
-4 15 -7 141 -7 280 1 291 0 288 87 291 10 1 15 6 12 11 -4 6 -67 10 -156 10
-93 0 -149 -4 -149 -10 0 -5 6 -10 13 -11 46 -2 73 -10 83 -24 13 -18 20 -245
7 -246 -51 -5 -318 -2 -326 3 -16 10 -11 228 6 245 11 11 41 20 75 22 6 1 12
6 12 11 0 6 -57 10 -150 10 -93 0 -150 -4 -150 -10z"/>
<path d="M800 990 c0 -5 9 -11 20 -11 11 -1 25 -3 30 -4 6 -1 16 -3 23 -4 32
-3 36 -48 34 -383 -3 -366 -6 -384 -64 -426 -35 -25 -87 -34 -120 -21 -23 9
-25 13 -19 49 5 35 3 41 -19 56 -23 15 -27 15 -50 0 -50 -33 -23 -99 52 -124
38 -13 148 -9 184 6 45 18 96 70 114 115 15 36 17 88 20 371 2 289 5 330 19
345 9 9 26 17 36 17 45 3 50 4 50 14 0 6 -58 10 -155 10 -97 0 -155 -4 -155
-10z"/>
</g>
</svg>
