<?xml version="1.0" encoding="UTF-8" standalone="no"?>
<!DOCTYPE svg PUBLIC "-//W3C//DTD SVG 1.1//EN" "http://www.w3.org/Graphics/SVG/1.1/DTD/svg11.dtd">
<svg width="100%" height="100%" viewBox="0 0 254 91" version="1.1" xmlns="http://www.w3.org/2000/svg" xmlns:xlink="http://www.w3.org/1999/xlink" xml:space="preserve" xmlns:serif="http://www.serif.com/" style="fill-rule:evenodd;clip-rule:evenodd;stroke-linejoin:round;stroke-miterlimit:1.41421;">
    <g transform="matrix(1,0,0,1,-231.89,-283.014)">
        <path d="M286.138,316.949L251.567,316.949L251.567,332.916C251.567,338.124 251.698,341.534 251.958,343.145C252.218,344.757 252.878,345.953 253.936,346.734C254.993,347.516 257.004,347.906 259.966,347.906L261.675,347.906L261.675,350.152L231.89,350.152L231.89,347.906L233.599,347.906C236.431,347.906 238.392,347.548 239.482,346.832C240.573,346.116 241.273,345.001 241.582,343.487C241.891,341.974 242.046,338.45 242.046,332.916L242.046,300.445C242.046,295.172 241.891,291.77 241.582,290.24C241.273,288.71 240.622,287.652 239.629,287.066C238.636,286.48 236.463,286.187 233.11,286.187L231.89,286.187L231.89,283.941L261.675,283.941L261.675,286.187L260.454,286.187C257.231,286.187 255.116,286.456 254.106,286.993C253.097,287.53 252.422,288.531 252.08,289.996C251.738,291.461 251.567,294.944 251.567,300.445L251.567,313.58L286.138,313.58L286.138,300.445C286.138,295.172 285.991,291.77 285.698,290.24C285.405,288.71 284.762,287.652 283.77,287.066C282.777,286.48 280.604,286.187 277.251,286.187L275.493,286.187L275.493,283.941L305.62,283.941L305.62,286.187L304.644,286.187C301.388,286.187 299.256,286.456 298.247,286.993C297.238,287.53 296.562,288.531 296.221,289.996C295.879,291.461 295.708,294.944 295.708,300.445L295.708,332.916C295.708,338.124 295.83,341.534 296.074,343.145C296.318,344.757 296.978,345.953 298.052,346.734C299.126,347.516 301.144,347.906 304.106,347.906L305.62,347.906L305.62,350.152L275.493,350.152L275.493,347.906L277.788,347.906C280.588,347.906 282.533,347.548 283.623,346.832C284.714,346.116 285.405,345.001 285.698,343.487C285.991,341.974 286.138,338.45 286.138,332.916L286.138,316.949Z" style="fill:rgb(88,93,211);fill-rule:nonzero;"/>
        <path d="M315.679,288.141C315.679,286.741 316.175,285.536 317.168,284.527C318.161,283.518 319.357,283.014 320.757,283.014C322.157,283.014 323.345,283.518 324.321,284.527C325.298,285.536 325.786,286.741 325.786,288.141C325.786,289.573 325.298,290.794 324.321,291.803C323.345,292.812 322.157,293.316 320.757,293.316C319.357,293.316 318.161,292.812 317.168,291.803C316.175,290.794 315.679,289.573 315.679,288.141ZM325.103,308.551L325.103,336.432C325.103,340.696 325.168,343.381 325.298,344.488C325.428,345.595 325.9,346.441 326.714,347.027C327.528,347.613 328.976,347.906 331.06,347.906L332.085,347.906L332.085,350.152L310.552,350.152L310.552,347.906L312.212,347.906C314.523,347.906 316.029,347.573 316.728,346.905C317.428,346.238 317.835,345.44 317.949,344.513C318.063,343.585 318.12,340.891 318.12,336.432L318.12,324.322C318.12,319.635 317.9,316.77 317.461,315.728C317.021,314.687 316.436,314.036 315.703,313.775C314.971,313.515 313.693,313.385 311.87,313.385L310.552,313.385L310.552,311.139C316.346,310.553 320.838,309.69 324.028,308.551L325.103,308.551Z" style="fill:rgb(88,93,211);fill-rule:nonzero;"/>
        <path d="M350.64,318.756C351.746,315.859 353.545,313.434 356.035,311.48C358.525,309.527 360.959,308.551 363.335,308.551C365.483,308.551 367.176,309.218 368.413,310.553C369.65,311.887 370.269,313.255 370.269,314.654C370.269,315.598 369.951,316.412 369.316,317.096C368.682,317.779 367.909,318.121 366.997,318.121C365.369,318.121 364.132,316.917 363.286,314.508C362.7,312.88 361.821,312.066 360.649,312.066C359.25,312.066 357.573,313.019 355.62,314.923C353.667,316.827 352.414,318.805 351.86,320.855C351.307,322.906 351.03,325.722 351.03,329.303L351.03,336.432C351.03,340.696 351.087,343.381 351.201,344.488C351.315,345.595 351.779,346.441 352.593,347.027C353.407,347.613 354.855,347.906 356.938,347.906L358.306,347.906L358.306,350.152L337.065,350.152L337.065,347.906L338.091,347.906C340.044,347.906 341.436,347.638 342.266,347.101C343.096,346.563 343.592,345.807 343.755,344.83C343.918,343.853 343.999,341.054 343.999,336.432L343.999,325.152C343.999,320.855 343.942,318.162 343.828,317.071C343.714,315.981 343.25,315.134 342.436,314.532C341.623,313.93 340.174,313.629 338.091,313.629L337.065,313.629L337.065,311.432C340.125,311.074 344.129,310.113 349.077,308.551C350.021,311.122 350.542,314.524 350.64,318.756Z" style="fill:rgb(88,93,211);fill-rule:nonzero;"/>
        <path d="M409.429,323.687L381.548,323.687C381.418,325.608 381.353,327.04 381.353,327.984C381.353,335.016 382.451,340.297 384.648,343.829C386.846,347.361 390.125,349.127 394.487,349.127C400.412,349.127 404.611,346.474 407.085,341.168L409.429,341.168C408.387,344.488 406.32,347.084 403.228,348.956C400.135,350.828 396.766,351.764 393.12,351.764C389.735,351.764 386.536,350.909 383.525,349.2C380.514,347.491 378.048,345.074 376.128,341.949C374.207,338.824 373.247,335.032 373.247,330.572C373.247,324.257 375.103,319.008 378.813,314.825C382.524,310.642 387.163,308.551 392.729,308.551C397.97,308.551 402.023,310.146 404.888,313.336C407.752,316.526 409.266,319.977 409.429,323.687ZM400.884,321.734C400.981,320.986 401.03,320.318 401.03,319.732C401.03,316.868 400.192,314.646 398.516,313.067C396.839,311.489 394.78,310.699 392.339,310.699C386.414,310.699 382.882,314.378 381.743,321.734L400.884,321.734Z" style="fill:rgb(88,93,211);fill-rule:nonzero;"/>
        <path d="M416.802,283.941L447.563,283.941L447.563,286.187L445.903,286.187C442.648,286.187 440.516,286.456 439.507,286.993C438.498,287.53 437.83,288.531 437.505,289.996C437.179,291.461 437.017,294.944 437.017,300.445L437.017,343.707C437.017,349.306 436.797,353.57 436.357,356.5C435.918,359.43 434.689,362.286 432.671,365.069C430.653,367.852 427.959,369.993 424.59,371.49C421.221,372.988 417.306,373.736 412.847,373.736C407.834,373.736 403.976,372.817 401.274,370.977C398.573,369.138 397.222,366.949 397.222,364.41C397.222,362.88 397.702,361.594 398.662,360.553C399.622,359.511 400.802,358.99 402.202,358.99C403.634,358.99 404.831,359.462 405.791,360.406C406.751,361.35 407.231,362.506 407.231,363.873C407.231,364.687 407.036,365.533 406.645,366.412C406.287,367.193 406.108,367.779 406.108,368.17C406.108,369.212 406.727,370.025 407.964,370.611C409.201,371.197 410.731,371.49 412.554,371.49C416.265,371.49 419.39,370.31 421.929,367.95C424.468,365.59 425.998,362.807 426.519,359.601C427.039,356.394 427.3,351.096 427.3,343.707L427.3,300.445C427.3,295.172 427.145,291.77 426.836,290.24C426.527,288.71 425.876,287.652 424.883,287.066C423.89,286.48 421.717,286.187 418.364,286.187L416.802,286.187L416.802,283.941Z" style="fill:rgb(88,93,211);fill-rule:nonzero;"/>
        <path d="M465.288,318.756C466.395,315.859 468.193,313.434 470.684,311.48C473.174,309.527 475.607,308.551 477.983,308.551C480.132,308.551 481.825,309.218 483.061,310.553C484.298,311.887 484.917,313.255 484.917,314.654C484.917,315.598 484.6,316.412 483.965,317.096C483.33,317.779 482.557,318.121 481.645,318.121C480.018,318.121 478.781,316.917 477.935,314.508C477.349,312.88 476.47,312.066 475.298,312.066C473.898,312.066 472.222,313.019 470.269,314.923C468.315,316.827 467.062,318.805 466.509,320.855C465.955,322.906 465.679,325.722 465.679,329.303L465.679,336.432C465.679,340.696 465.736,343.381 465.85,344.488C465.964,345.595 466.427,346.441 467.241,347.027C468.055,347.613 469.504,347.906 471.587,347.906L472.954,347.906L472.954,350.152L451.714,350.152L451.714,347.906L452.739,347.906C454.692,347.906 456.084,347.638 456.914,347.101C457.744,346.563 458.241,345.807 458.403,344.83C458.566,343.853 458.647,341.054 458.647,336.432L458.647,325.152C458.647,320.855 458.59,318.162 458.477,317.071C458.363,315.981 457.899,315.134 457.085,314.532C456.271,313.93 454.823,313.629 452.739,313.629L451.714,313.629L451.714,311.432C454.774,311.074 458.778,310.113 463.726,308.551C464.67,311.122 465.19,314.524 465.288,318.756Z" style="fill:rgb(88,93,211);fill-rule:nonzero;"/>
    </g>
</svg>
